<svg viewBox="62 146 795 309" xmlns="http://www.w3.org/2000/svg" width="2500" height="556"><g fill-opacity=".88"><path d="M691.1 393.5c0-10.8 6.6-18 19.6-18 15.2 0 19.6 5.3 25 27.3 1.8 7.5 6.4 12.1 18.3 12.1 16.1 0 25-8.8 25-21.8 0-11.4-11.6-20.5-34.1-34.9-24.8-15.2-38.3-29.7-38.3-51 0-33 36.7-52.8 70.2-52.8 37.8 0 52.3 16.1 52.3 31.4 0 10.1-6.6 15.6-18 15.6-14.3 0-18.7-5.7-23.5-22.8-2.2-8.6-6.6-12.1-15.2-12.1-13.6 0-22.7 7-22.7 19.6 0 12.1 11.9 19.6 38.2 36.1 24.8 14.5 35.8 30.5 35.8 49.2 0 30.8-33.2 55.8-74.7 55.8-41.4-.5-57.9-17.4-57.9-33.7M107.1 250.8c0-7.1 0-29.3-.7-33.8-1.1-6-2.8-6.4-12.3-8.8-3.3-.7-4-3.1-4-5.7 0-3.3.4-3.7 10.5-5.7 18.5-4.2 36.2-11.2 52.6-20.7 3.3-2.4 4-2.4 4.8-2.4 2.8 0 2.8 3.1 2.8 7.1v35.6l-.4 58c0 3.7 0 5.5 1.6 5.5.4 0 1.1 0 5.5-4 15.6-13.2 33.2-21.1 53.6-21.1 15.2 0 29.2 4.8 39.6 16 9.2 9.5 10.5 23.7 10.5 39.2v90.3c0 8.1 1.7 11.2 11.9 13.9 0 0 2.8 1.3 8.8 1.3s8.4-.9 8.4-.9c11.2-3.3 11.2-7.5 11.2-25.1l-.4-44c0-7.1-.4-42.7-1.1-47.1-1.1-6-2.8-6.4-12.3-8.8-3.3-.7-4-3.1-4-5.7 0-3.3.4-3.7 10.5-5.7 18.5-4.1 36.2-11.1 52.4-20.8 3.3-2.4 4-2.4 4.8-2.4 2.8 0 2.8 3.1 2.8 7.1v130c0 16 1.3 18.9 12.8 22 3.4 1 6.9 1.4 10.5 1.3 3.5.1 6.9-.3 10.3-1.3 13.6-3.3 13.6-8.1 13.6-24.4 0-28.4 0-65.1-1.1-85.5-.4-12.3-.7-12.5-16.9-15.2-4-.7-4.4-2.8-4.4-5.5 0-4 1.6-4.4 7.7-5.5 14.3-3.1 36.3-8.8 55.6-20 6-3.7 6.8-3.7 7.7-3.7 2.4 0 2.4 2.8 2.4 4.8v14.5c0 3.3 0 4.8 1.6 4.8 1.1 0 1.6 0 4-2.4 16.7-14.9 31.2-22 49.9-22 16.9 0 30.4 5.5 40.4 18.9 5.1 6.8 5.5 7.1 6.8 7.1.7 0 1.3 0 7.5-5.7 10.5-9.9 28.1-20.7 51.2-20.7 3.1 0 32.8.4 44.8 21.3 4.4 7.7 6.8 11.9 6.8 56.9v67.5c0 5.7 0 11.2 10.8 13.9 4 1.1 6.4 1.7 6.4 6.4 0 3.1-.7 5.1-5.5 5.5h-75c-3.3 0-7.5-.7-7.5-6.4 0-3.3 2-4 5.7-5.1 6.8-2 11.2-3.1 11.2-19.6v-32.8c0-9.5 0-52.5-.7-58.3-.4-5.7-2-25.7-24.8-25.7-6.8 0-26.8 5.1-26.8 24v97.2c0 9.9 1.6 12.3 12.5 14.9 3.7 1.1 6.1 1.7 6.1 5.5 0 5.7-3.1 6.4-12.1 6.4h-68.2c-4.8 0-8.4-.4-8.4-5.7 0-3.3 1.3-4 4.8-5.1 12.3-3.7 12.3-8.4 12.3-23.7 0-16 0-82-1.6-92.8-2.4-13.9-14.3-18.4-23.3-18.4-11.5 0-22.7 8.1-26 16.7-1.1 2.8-1.1 38.7-1.1 44.4 0 10.1 0 53.9.7 60.7.7 9.2 8.1 11.2 15.2 12.8 3.3 1.1 5.1 1.3 5.1 5.5 0 5.5-4.4 5.7-9.2 5.7H203.9c-2.8-.4-3.7-3.1-3.7-5.5 0-3.3 1.6-4.4 4.8-5.1 5.1-1.3 8.4-2.4 9.9-6 1.6-4.8 1.6-13.9 2-21.1.4-33.2.4-33.9.4-71.2 0-14.5 0-38-25.5-38-11.6 0-20 6.8-22.8 9.5-6.4 6-8.8 8.4-8.8 21.1v90.1c0 8.4 1.1 11.9 12.5 14.9 3.1.7 6.4 1.3 6.4 4.8 0 6-4.4 6.4-10.4 6.4H99c-6.1 0-8.8 0-8.8-5.5 0-3.3 2-4 5.7-5.1 11.2-4 11.2-8.4 11.2-25.1z"/><path d="M338 186.2c-16.7 0-29.2 14.3-29.2 29.5 0 18.7 14.9 28.4 28.1 28.4 16.3-.2 29.4-13.5 29.2-29.8v-.1c0-15.4-12.6-28-28.1-28z"/></g><path d="M62 146h795v309H62z" fill="none"/></svg>