<?xml version="1.0" standalone="no"?>
<!DOCTYPE svg PUBLIC "-//W3C//DTD SVG 20010904//EN"
 "http://www.w3.org/TR/2001/REC-SVG-20010904/DTD/svg10.dtd">
<svg version="1.0" xmlns="http://www.w3.org/2000/svg"
 width="174.000000pt" height="98.000000pt" viewBox="0 0 174.000000 98.000000"
 preserveAspectRatio="xMidYMid meet">
<g transform="translate(0.000000,98.000000) scale(0.100000,-0.100000)"
fill="#000000" stroke="none">
<path d="M910 910 c0 -5 5 -10 10 -10 6 0 10 5 10 10 0 6 -4 10 -10 10 -5 0
-10 -4 -10 -10z"/>
<path d="M1665 910 c3 -5 8 -10 11 -10 2 0 4 5 4 10 0 6 -5 10 -11 10 -5 0 -7
-4 -4 -10z"/>
<path d="M864 880 c0 -11 7 -22 14 -25 10 -4 12 0 8 11 -3 8 -6 20 -6 25 0 5
-4 9 -8 9 -4 0 -8 -9 -8 -20z"/>
<path d="M1620 885 c0 -8 0 -18 0 -22 0 -4 6 -8 15 -9 8 -1 15 3 15 9 0 7 7 3
15 -7 16 -21 21 -11 7 12 -5 8 -16 10 -27 6 -14 -6 -17 -4 -12 9 3 9 2 17 -3
17 -6 0 -10 -7 -10 -15z"/>
<path d="M1680 879 c0 -5 5 -7 10 -4 6 3 10 8 10 11 0 2 -4 4 -10 4 -5 0 -10
-5 -10 -11z"/>
<path d="M912 855 c6 -14 13 -23 16 -21 7 7 -9 46 -18 46 -5 0 -4 -11 2 -25z"/>
<path d="M945 870 c-3 -5 -1 -10 4 -10 6 0 11 5 11 10 0 6 -2 10 -4 10 -3 0
-8 -4 -11 -10z"/>
<path d="M1571 828 c0 -14 -7 -29 -13 -31 -10 -4 -10 -6 0 -6 16 -1 25 22 19
46 -3 12 -5 9 -6 -9z"/>
<path d="M820 836 c0 -2 7 -6 15 -10 8 -3 15 -1 15 4 0 6 -7 10 -15 10 -8 0
-15 -2 -15 -4z"/>
<path d="M1540 831 c0 -6 4 -13 10 -16 6 -3 7 1 4 9 -7 18 -14 21 -14 7z"/>
<path d="M1600 830 c0 -6 4 -10 10 -10 5 0 7 -7 4 -15 -4 -8 -9 -13 -13 -11
-4 3 -12 -4 -18 -14 -10 -15 -9 -17 7 -13 11 3 22 14 25 24 8 23 23 25 31 4 5
-12 10 -12 27 -3 12 7 25 11 29 10 3 -1 9 5 12 14 5 12 2 12 -15 3 -16 -8 -30
-7 -60 5 -22 9 -39 11 -39 6z"/>
<path d="M856 814 c-5 -12 -2 -15 10 -10 10 4 22 0 29 -10 6 -10 17 -14 23
-10 20 12 13 24 -19 35 -39 14 -36 14 -43 -5z"/>
<path d="M940 809 c0 -5 5 -7 10 -4 6 3 10 8 10 11 0 2 -4 4 -10 4 -5 0 -10
-5 -10 -11z"/>
<path d="M790 801 c0 -6 4 -13 10 -16 6 -3 7 1 4 9 -7 18 -14 21 -14 7z"/>
<path d="M826 782 c-3 -5 1 -9 9 -9 8 0 15 4 15 9 0 4 -4 8 -9 8 -6 0 -12 -4
-15 -8z"/>
<path d="M916 775 c-11 -8 -15 -15 -9 -15 6 0 20 -3 30 -7 15 -6 16 -5 5 9
-11 14 -10 17 5 21 12 3 13 5 3 6 -8 0 -24 -6 -34 -14z"/>
<path d="M1665 770 c-10 -11 -15 -20 -11 -20 4 0 19 9 33 20 17 13 20 20 11
20 -8 0 -23 -9 -33 -20z"/>
<path d="M790 759 c0 -5 5 -7 10 -4 6 3 10 8 10 11 0 2 -4 4 -10 4 -5 0 -10
-5 -10 -11z"/>
<path d="M1595 750 c3 -5 8 -10 11 -10 2 0 4 5 4 10 0 6 -5 10 -11 10 -5 0 -7
-4 -4 -10z"/>
<path d="M813 738 c1 -7 -13 -15 -33 -19 -19 -3 -27 -7 -17 -8 20 -1 25 -55 5
-67 -6 -4 -8 -3 -5 3 4 6 -5 15 -19 22 -19 8 -24 8 -18 0 4 -7 -1 -18 -10 -25
-12 -8 -16 -23 -14 -45 4 -44 22 -47 41 -7 9 18 25 39 37 46 11 7 18 17 15 22
-3 6 -1 10 6 10 10 0 10 3 2 11 -9 9 -8 16 3 27 11 10 18 12 26 4 12 -12 38
-4 55 17 17 23 16 5 -3 -31 -12 -22 -19 -27 -27 -19 -14 14 -40 14 -31 0 3 -6
1 -15 -6 -19 -16 -10 -22 -58 -8 -66 5 -4 8 3 6 14 -3 22 2 25 28 15 8 -3 21
0 27 7 9 10 7 11 -10 5 -19 -5 -23 -2 -23 14 0 12 5 21 10 21 6 0 10 -5 10
-11 0 -6 5 -7 13 -2 6 4 19 8 27 8 8 0 14 6 13 13 -2 6 1 12 7 12 6 0 10 5 10
11 0 8 -5 8 -15 -1 -12 -10 -15 -10 -15 4 0 9 5 17 10 17 11 2 25 5 38 9 4 1
-6 6 -23 9 -16 4 -35 4 -41 -1 -22 -16 -54 -18 -54 -2 0 8 -4 14 -10 14 -5 0
-9 -5 -7 -12z m-68 -105 c-5 -10 -7 -24 -6 -30 3 -18 -16 -16 -22 1 -3 7 1 24
10 35 17 25 29 21 18 -6z"/>
<path d="M1567 736 c-4 -9 -15 -16 -26 -16 -17 0 -18 -3 -8 -25 7 -14 18 -25
26 -25 10 0 11 3 2 14 -15 18 7 36 34 26 11 -4 28 -3 38 2 23 12 22 -5 -3 -27
-12 -10 -19 -24 -16 -31 2 -6 -1 -17 -7 -24 -9 -10 -9 -11 3 -8 8 3 16 14 18
26 2 12 7 22 12 22 5 0 7 -8 4 -17 -4 -10 8 2 25 27 17 25 31 48 31 53 0 4
-13 7 -30 7 -16 0 -30 -4 -30 -8 0 -14 -50 -8 -59 7 -6 10 -10 9 -14 -3z m101
-39 c-16 -33 -18 -32 -15 0 1 19 6 29 14 26 10 -4 10 -10 1 -26z"/>
<path d="M1578 669 c-14 -15 -15 -19 -2 -29 11 -10 15 -8 20 6 4 11 9 22 11
26 8 15 -13 13 -29 -3z"/>
<path d="M10 668 c0 -2 -1 -83 -3 -181 l-2 -177 35 0 35 0 -3 93 c-6 167 -8
166 87 28 118 -171 121 -170 121 60 l0 182 -31 -7 c-17 -3 -34 -6 -38 -6 -3 0
-5 -35 -3 -78 2 -43 2 -96 0 -117 l-3 -39 -84 122 c-46 67 -90 122 -98 122 -7
0 -13 -1 -13 -2z m238 -240 l-3 -72 -18 28 c-15 22 -16 30 -6 42 13 16 16 32
20 144 l3 75 3 -72 c2 -40 3 -105 1 -145z m-202 173 c-3 -5 0 -11 8 -14 12 -5
12 -11 0 -44 -7 -21 -13 -76 -14 -122 0 -129 -8 -92 -12 57 -3 104 -1 132 10
132 7 0 11 -4 8 -9z"/>
<path d="M385 662 c-54 -18 -53 -16 -57 -190 l-3 -162 38 0 37 0 0 70 0 70 68
0 67 0 -3 -70 -4 -70 41 0 41 0 0 134 c0 162 -8 189 -61 210 -39 16 -126 20
-164 8z m132 -44 c6 -5 13 -36 15 -69 l3 -59 -67 0 -68 0 0 69 c0 64 2 70 23
74 28 6 78 -2 94 -15z m-144 -58 c-3 -40 -1 -66 8 -76 9 -11 9 -18 1 -26 -7
-7 -13 -37 -14 -67 -1 -31 -5 0 -8 69 -3 78 -1 128 5 132 6 4 6 8 2 8 -7 0 0
20 7 20 2 0 1 -27 -1 -60z m203 23 c-3 -8 -7 -67 -8 -131 -1 -64 -3 -94 -5
-67 -2 28 -6 57 -10 65 -3 8 -5 20 -3 25 2 6 6 35 9 65 5 42 2 58 -9 68 -13
11 -11 11 8 2 15 -7 21 -17 18 -27z"/>
<path d="M1487 656 c-5 -11 -3 -15 5 -10 8 5 9 -1 4 -22 -9 -35 -23 -45 -56
-39 -14 3 -19 2 -12 -1 6 -3 9 -10 6 -16 -3 -5 3 -12 15 -15 12 -3 21 -10 21
-15 0 -5 5 -6 10 -3 6 3 10 -1 10 -9 0 -19 20 -22 20 -3 0 6 8 -2 16 -20 20
-40 43 -49 66 -25 19 19 34 67 18 57 -5 -3 -12 6 -16 20 -3 13 -10 22 -15 19
-5 -3 -7 -10 -4 -15 4 -5 1 -9 -4 -9 -6 0 -11 5 -11 10 0 6 -5 10 -11 10 -6 0
-9 -9 -6 -20 6 -22 -8 -37 -18 -20 -4 6 -10 8 -15 5 -4 -3 -13 2 -20 9 -14 18
13 66 39 66 22 0 47 17 38 26 -3 4 -13 1 -21 -5 -19 -16 -37 -6 -29 16 4 10 2
14 -4 10 -6 -4 -13 -2 -15 5 -3 7 -7 5 -11 -6z m93 -121 c-11 -13 -10 -14 3
-10 22 9 30 -11 11 -29 -20 -20 -28 -20 -45 0 -11 14 -10 19 10 35 28 23 38
25 21 4z"/>
<path d="M1028 528 c1 -73 5 -143 7 -155 9 -39 60 -58 155 -58 91 0 143 18
154 52 3 10 8 78 10 151 4 118 3 132 -12 132 -9 0 -27 3 -39 6 l-23 6 0 -135
c0 -166 -7 -181 -90 -181 -82 0 -90 16 -90 175 0 116 -2 129 -17 129 -10 0
-27 3 -38 6 -19 5 -20 1 -17 -128z m44 -12 c0 -54 -3 -100 -6 -104 -7 -6 -7
-8 -9 118 -1 50 2 89 6 87 5 -1 9 -47 9 -101z m250 -81 c3 -14 1 -25 -3 -25
-5 0 -9 11 -9 25 0 14 2 25 4 25 2 0 6 -11 8 -25z m-14 -55 c-7 -10 -14 -18
-15 -16 -6 6 9 36 18 36 5 0 4 -9 -3 -20z"/>
<path d="M1526 644 c-4 -10 -1 -14 6 -12 15 5 23 28 10 28 -5 0 -13 -7 -16
-16z"/>
<path d="M1461 634 c0 -11 3 -14 6 -6 3 7 2 16 -1 19 -3 4 -6 -2 -5 -13z"/>
<path d="M770 620 c-8 -5 -12 -11 -9 -14 2 -3 11 -1 19 4 8 5 12 11 9 14 -2 3
-11 1 -19 -4z"/>
<path d="M1460 599 c0 -5 5 -7 10 -4 6 3 10 8 10 11 0 2 -4 4 -10 4 -5 0 -10
-5 -10 -11z"/>
<path d="M1560 599 c0 -5 5 -7 10 -4 6 3 10 8 10 11 0 2 -4 4 -10 4 -5 0 -10
-5 -10 -11z"/>
<path d="M760 580 c-9 -6 -10 -10 -3 -10 6 0 15 5 18 10 8 12 4 12 -15 0z"/>
<path d="M1515 580 c-8 -13 5 -13 25 0 13 8 13 10 -2 10 -9 0 -20 -4 -23 -10z"/>
<path d="M685 558 c11 -6 23 -16 27 -22 4 -6 8 -8 8 -4 0 4 17 -9 38 -27 38
-36 65 -44 78 -23 5 8 2 9 -10 5 -19 -7 -38 7 -49 36 -4 10 -11 16 -15 13 -5
-3 -23 4 -40 15 -18 10 -38 19 -45 19 -6 0 -3 -6 8 -12z"/>
<path d="M790 549 c0 -11 4 -18 10 -14 5 3 7 12 3 20 -7 21 -13 19 -13 -6z"/>
<path d="M824 543 c2 -18 1 -34 -3 -36 -3 -2 -1 -3 5 -1 6 1 17 -3 23 -9 8 -8
11 -7 11 3 0 7 3 10 6 7 4 -4 1 -13 -6 -22 -8 -10 -9 -15 -2 -15 6 0 16 9 22
20 11 20 5 25 -27 21 -7 -1 -10 4 -8 11 3 8 -1 22 -10 33 -14 19 -14 18 -11
-12z"/>
<path d="M850 559 c0 -6 9 -13 20 -16 11 -3 17 -9 14 -14 -3 -5 2 -6 10 -3 22
8 20 11 -14 29 -20 10 -30 12 -30 4z"/>
<path d="M1615 554 c11 -8 19 -20 18 -25 -2 -5 3 -9 10 -9 8 0 7 -4 -3 -11
-12 -8 -10 -9 8 -4 39 11 26 -22 -33 -81 -31 -30 -60 -52 -65 -49 -13 8 -53
-21 -56 -40 -2 -13 0 -14 12 -4 8 6 18 9 21 5 4 -4 1 -11 -6 -15 -11 -7 -11
-10 0 -14 12 -4 11 -7 -1 -16 -8 -6 -22 -11 -32 -11 -13 0 -15 7 -11 32 4 29
3 31 -12 18 -9 -7 -14 -19 -11 -27 3 -7 0 -13 -7 -13 -7 -1 3 -7 21 -15 32
-14 40 -29 22 -40 -5 -3 -10 1 -10 9 0 22 -37 20 -49 -3 -14 -26 8 -56 26 -36
8 9 9 16 3 20 -6 3 -10 11 -10 16 0 6 12 1 27 -11 26 -20 28 -20 34 -3 4 10 4
22 2 26 -3 5 3 17 12 27 13 15 22 17 36 10 25 -14 39 -12 39 5 0 8 -6 12 -12
10 -17 -6 -32 5 -48 35 -12 23 -12 24 4 11 15 -12 19 -12 32 7 8 12 22 22 30
22 8 0 14 5 14 10 0 6 9 10 21 10 16 0 19 4 14 22 -6 17 -4 20 10 14 14 -5 16
-2 12 21 -4 16 -4 22 -1 15 3 -6 11 -9 16 -6 8 5 9 -4 4 -27 -6 -30 -5 -32 9
-18 14 14 14 19 0 53 -9 20 -22 39 -30 43 -8 3 -15 12 -15 20 0 8 -4 12 -9 9
-5 -3 -14 1 -21 9 -7 8 -18 15 -24 15 -6 0 -2 -8 9 -16z"/>
<path d="M913 502 c19 -21 22 -38 8 -46 -5 -4 -7 4 -4 16 5 21 2 20 -22 -7
-17 -20 -28 -26 -31 -17 -8 18 -45 16 -38 -3 4 -8 12 -15 20 -15 8 0 14 -4 14
-9 0 -14 -53 -46 -72 -43 -20 4 -24 -14 -5 -22 6 -3 0 -3 -14 0 -21 4 -27 1
-32 -16 -4 -17 -3 -19 8 -10 25 20 36 2 20 -30 -9 -17 -15 -32 -15 -35 0 -3
-4 -13 -9 -23 -9 -16 -10 -16 -16 1 -10 23 -32 22 -45 -4 -21 -39 -6 -49 39
-27 23 11 41 26 41 32 0 7 6 13 13 13 22 1 40 8 59 23 23 19 23 29 -1 23 -10
-2 -26 4 -36 14 -18 17 -18 18 3 21 12 2 20 8 17 13 -4 5 1 9 9 9 9 0 16 5 16
10 0 6 7 10 15 10 8 0 15 5 15 11 0 6 7 8 16 5 10 -4 15 0 13 12 -3 30 1 43
10 37 5 -3 13 0 17 6 5 8 9 7 15 -2 10 -16 -9 -41 -24 -32 -6 3 -7 1 -3 -6 4
-6 12 -9 17 -6 5 3 6 -1 3 -9 -3 -9 -2 -16 4 -16 14 0 26 74 13 78 -6 2 -11 8
-11 13 0 6 5 7 11 3 6 -3 3 5 -6 20 -10 14 -24 26 -33 26 -13 0 -13 -2 1 -18z
m-111 -216 c7 4 8 2 4 -4 -4 -7 -16 -12 -27 -12 -17 0 -18 3 -7 23 11 19 13
20 16 4 2 -9 8 -14 14 -11z m-88 -52 c3 -8 2 -12 -4 -9 -6 3 -10 10 -10 16 0
14 7 11 14 -7z"/>
<path d="M1613 471 c-3 -13 -10 -18 -20 -14 -10 4 -14 2 -11 -7 8 -26 26 -21
36 10 6 16 9 30 6 30 -3 0 -8 -9 -11 -19z"/>
<path d="M1690 389 c0 -5 5 -7 10 -4 6 3 10 8 10 11 0 2 -4 4 -10 4 -5 0 -10
-5 -10 -11z"/>
<path d="M880 358 c-9 -19 -9 -21 2 -8 7 8 20 16 28 18 9 2 4 -8 -11 -24 -27
-26 -56 -25 -45 2 3 8 0 11 -9 7 -8 -3 -13 -9 -10 -13 3 -4 -2 -11 -11 -14 -9
-4 -14 -9 -11 -13 4 -3 13 0 22 7 12 10 16 9 21 -4 8 -22 14 -20 52 15 26 24
31 34 20 40 -22 14 -37 10 -48 -13z"/>
<path d="M1637 360 c-9 -11 -12 -20 -7 -20 6 0 10 -4 10 -10 0 -5 -8 -10 -17
-10 -13 0 -14 -3 -5 -12 10 -10 19 -5 42 21 30 33 38 47 20 36 -5 -3 -10 -1
-10 4 0 17 -14 13 -33 -9z m28 -10 c-3 -5 -11 -10 -16 -10 -6 0 -7 5 -4 10 3
6 11 10 16 10 6 0 7 -4 4 -10z"/>
<path d="M1594 362 c3 -6 -1 -17 -9 -25 -17 -17 -20 -31 -5 -22 19 12 31 43
18 51 -6 4 -8 3 -4 -4z"/>
<path d="M703 314 c-10 -29 -9 -32 15 -43 22 -9 24 -9 11 1 -9 7 -14 19 -12
25 3 7 3 21 1 30 -3 13 -7 9 -15 -13z"/>
<path d="M1538 273 c-19 -5 -24 -18 -9 -27 5 -3 11 1 15 9 3 9 12 12 22 8 12
-4 15 -3 10 5 -7 12 -9 13 -38 5z"/>
<path d="M640 205 c0 -8 5 -15 10 -15 6 0 10 7 10 15 0 8 -4 15 -10 15 -5 0
-10 -7 -10 -15z"/>
<path d="M1393 205 c0 -8 4 -15 9 -15 4 0 8 7 8 15 0 8 -4 15 -8 15 -5 0 -9
-7 -9 -15z"/>
<path d="M615 169 c18 -9 20 -17 15 -70 -3 -33 -4 -62 -2 -64 10 -10 22 8 22
31 0 19 5 24 25 24 20 0 25 -5 25 -25 0 -14 5 -25 10 -25 11 0 14 78 4 104 -4
10 -18 16 -40 16 -19 0 -34 4 -34 8 0 4 -10 8 -22 9 -22 1 -22 1 -3 -8z m83
-46 c3 -19 -1 -23 -22 -23 -21 0 -26 5 -26 26 0 21 4 25 23 22 14 -2 23 -11
25 -25z"/>
<path d="M1370 170 c20 -13 33 -13 25 0 -3 6 -14 10 -23 10 -15 0 -15 -2 -2
-10z"/>
<path d="M1410 169 c0 -5 5 -7 10 -4 6 3 10 8 10 11 0 2 -4 4 -10 4 -5 0 -10
-5 -10 -11z"/>
<path d="M47 153 c-11 -11 -8 -111 4 -118 6 -4 13 2 15 12 3 11 19 23 37 29
35 10 48 44 27 70 -13 14 -71 20 -83 7z m67 -26 c9 -15 7 -21 -8 -33 -30 -21
-36 -17 -36 22 0 28 4 35 16 32 9 -2 22 -11 28 -21z"/>
<path d="M335 100 c0 -41 4 -60 13 -60 7 0 12 13 12 30 0 23 5 30 19 30 15 0
21 -8 23 -32 5 -56 23 -36 26 30 2 52 0 62 -14 62 -12 0 -15 -6 -12 -25 4 -21
1 -25 -18 -25 -19 0 -24 5 -24 25 0 14 -6 25 -12 25 -9 0 -13 -19 -13 -60z"/>
<path d="M595 150 c-3 -5 -1 -10 4 -10 6 0 11 5 11 10 0 6 -2 10 -4 10 -3 0
-8 -4 -11 -10z"/>
<path d="M927 153 c-4 -3 -7 -30 -7 -60 0 -40 4 -53 15 -53 12 0 15 13 15 56
0 47 3 55 18 52 12 -2 17 -13 17 -33 0 -19 -5 -29 -12 -28 -19 4 -16 -10 8
-36 23 -25 40 -21 18 5 -11 14 -10 17 4 25 20 11 23 49 5 67 -13 13 -70 17
-81 5z"/>
<path d="M1220 94 c0 -80 16 -76 22 5 2 37 -1 56 -9 58 -10 4 -13 -13 -13 -63z"/>
<path d="M1302 133 c-17 -23 -22 -25 -36 -14 -23 19 -20 -2 3 -23 18 -17 20
-16 26 3 11 34 25 24 25 -18 0 -22 5 -43 10 -46 6 -4 10 18 10 59 0 36 -4 66
-9 66 -5 0 -18 -12 -29 -27z"/>
<path d="M1350 150 c0 -5 5 -10 10 -10 6 0 10 5 10 10 0 6 -4 10 -10 10 -5 0
-10 -4 -10 -10z"/>
<path d="M1547 153 c-4 -3 -7 -30 -7 -60 0 -41 3 -53 16 -53 10 0 14 7 12 23
-2 16 3 23 19 25 17 3 22 -3 25 -23 2 -14 7 -27 13 -28 9 -2 8 100 -1 115 -6
10 -68 11 -77 1z m61 -31 c3 -18 -1 -22 -22 -22 -19 0 -26 5 -26 18 0 39 43
43 48 4z"/>
<path d="M588 124 c-5 -4 -8 -19 -8 -33 1 -23 2 -24 11 -8 11 19 9 53 -3 41z"/>
</g>
</svg>
